<svg width="1295" height="315" viewBox="0 0 1295 315" fill="none" xmlns="http://www.w3.org/2000/svg">
<path d="M1151.79 225.51L1145.73 211.65H1107L1100.68 225.4H1070.85L1049.7 200.97L1036.12 200.79L1036.19 225.25L1022.26 225.37V151.87L1060.59 152.18C1075.29 152.3 1085.49 165.36 1083.59 179.37C1082.86 189.88 1075.87 197.28 1065.17 199.38L1086.57 223.52L1118.75 151.93L1133.83 151.77L1166.85 225.26L1151.8 225.5L1151.79 225.51ZM1059.14 188.29C1066.56 188.23 1070.54 181.25 1070 175.4C1069.39 168.91 1064.42 164.74 1057.57 164.72L1036.12 164.67L1036.21 188.46L1059.15 188.28L1059.14 188.29ZM1140.07 198.68L1126.34 167.38L1112.58 198.7L1140.08 198.68H1140.07Z" fill="black"/>
<path d="M613.22 86.7882L591.96 69.6982C582.9 62.4082 565.22 48.8882 560.45 55.0282L545.96 73.6982C538.64 83.1282 531.22 92.0082 522.07 99.7182C518.2 102.978 512.3 105.518 507.4 104.308C496.7 101.668 487.85 94.6782 481.55 86.3382C478.35 80.3482 479.32 74.2182 484.75 70.4782C496.69 53.7982 509.97 38.8282 525.15 25.1182L539.88 11.8182C554.1 -1.03175 576.87 -4.19177 592.71 6.26823C605.61 14.7882 616.98 24.7882 628.47 35.2282L646.82 55.1882C650.83 51.2182 656.06 46.9382 661.85 48.9982C666.36 50.6082 669.38 56.5582 670.52 61.3282C674.57 78.3782 677.42 95.0382 679.52 112.468C679.93 115.908 679.6 118.978 678.99 122.858L648.7 119.978C636.01 118.768 623.91 114.838 612.69 108.998C608.12 106.618 605.34 101.988 607.11 96.6682C608.18 93.4682 610.46 90.5182 613.21 86.7982L613.22 86.7882ZM615.55 89.6982C613.58 93.4682 612.3 97.5482 612.73 101.768C627.51 108.798 642.76 111.188 658.4 115.238L676.49 119.928L667.87 83.0482C665.64 73.5182 664.65 63.8482 660.99 55.0582C656.88 53.1382 650.99 56.1082 649.72 59.1882L653.05 67.8482C647.56 65.2682 645.95 60.9982 642.21 57.3982C625.23 41.0682 607.99 25.8482 589.14 11.6982C581.04 5.61819 570.12 2.56822 560.4 5.47822C553.04 7.67822 547.3 13.4482 541.91 18.7882L488.35 71.8582C478.57 81.5482 499.64 95.3882 512.81 101.248L521.3 92.9682C531.98 79.7482 541.96 66.8782 554.07 54.9282C565.45 43.7082 577.68 50.9782 590.71 60.0282C601.49 67.5182 610.39 76.6282 619.7 85.9082C621.75 87.9582 622.66 89.2582 623.77 92.9382L615.56 89.6882L615.55 89.6982Z" fill="#126937"/>
<path d="M536.69 249.399C551.67 254.469 551.52 274.439 546.55 289.399C543.63 295.349 537.96 299.039 531.69 296.229C506.01 295.499 481.52 290.329 456.85 283.629C446.88 280.919 437.99 277.709 430.95 270.159C424.13 262.839 418.46 254.609 418.36 243.669C418.12 218.519 422.23 193.259 429.62 169.229C424.22 168.119 418.66 166.119 416.5 160.839C414.93 156.989 417.32 152.469 419.31 148.849L435.65 132.149C445.54 122.039 455.72 112.969 468.39 104.879C479.99 121.919 506.29 176.999 485.42 179.969C481.95 180.459 478.23 180.209 474.58 179.869L471.63 210.229C470.67 220.119 470 236.079 474.07 240.039C475.25 241.179 478.97 241.209 481 241.419L513.43 244.669C521.38 245.469 529.2 246.869 536.68 249.399H536.69ZM540.63 286.129L542.65 272.249C543.44 266.849 543 261.069 541.5 255.839C535.53 254.009 530.07 253.089 524.21 252.639C508.65 251.449 493.93 249.699 478.56 246.389C475.14 245.649 469.84 242.269 468.31 239.299C464.43 231.749 464.49 223.609 464.22 215.299C465.15 200.019 467.41 185.709 471.64 171.079L474.19 168.359L475.38 175.469C478.64 176.359 485.05 176.189 486.71 171.989C488.16 168.319 486.03 162.689 484.95 158.849L478.26 138.349L467.7 108.369C457.23 120.749 445.69 131.969 434.16 143.609L423.17 154.699C422.14 155.739 421.42 160.069 422.64 160.819L430.83 165.859L436.68 157.249C437.42 162.219 435.28 166.039 434.27 170.929C429.56 193.849 426.34 216.699 424.74 240.159C424.05 250.219 426.5 260.829 433.66 267.489C439.96 273.339 448.53 274.949 456.56 276.799L489 284.259L530.89 292.559C535.22 293.419 539.96 290.719 540.62 286.129H540.63Z" fill="#21335F"/>
<path d="M95.17 151.901H110.65L84.23 225.261L72.25 225.381L55.4 179.441C49.97 195.741 44.92 210.431 38.7 225.371L27.01 225.481L0 151.981H15.5L32.82 204.821L50.85 151.951H59.83L78.25 204.851L95.17 151.891V151.901Z" fill="black"/>
<path d="M576.18 296.037C573.7 295.027 571.32 293.117 569.32 291.337C576.88 277.447 585.51 265.667 596 254.187L609.51 241.857C613.06 238.617 619.04 236.417 623.41 238.767C627.78 241.117 630.05 245.947 631.8 250.927L672.04 233.487C677.56 231.097 682.33 226.997 685.92 222.497L673.65 193.437C669.55 183.737 665.64 173.937 663.78 163.617C660.97 148.017 678.16 139.507 693.08 135.697C700.83 134.777 706.91 139.247 707.77 146.757L720.29 176.127C726 192.687 730.04 209.247 733.73 226.457C736.96 241.517 728.53 262.577 713.3 270.847C693.79 281.437 666.24 291.287 643.85 295.247C645.16 300.127 646.17 306.037 643.2 310.347C640.64 314.057 634.64 315.027 630.11 313.917C611.53 309.357 593.92 303.257 576.17 296.037H576.18ZM572.08 290.707C590.33 295.057 608.52 300.407 626.9 306.247C629.8 307.167 634.72 308.287 637.16 307.687C641.46 305.557 640.66 298.687 639.4 296.157L629.18 294.957C634.89 291.407 638.94 292.007 644.05 290.367C666.85 283.067 689 275.257 710.6 265.117C719.19 261.087 726.9 253.417 728.77 244.287C730.64 235.157 727.9 226.937 725.52 218.807L707.48 157.037C706.01 152.017 704.69 146.187 700.23 143.167C694.84 139.507 676.14 149.017 667.11 155.337L671.62 170.647C677.88 185.237 684.02 199.357 688.24 214.657C689.81 220.347 689.02 227.197 684.79 231.267C677.97 237.837 669.76 242.597 661.01 246.247C648.35 251.527 636.29 256.027 621.96 257.877C623.41 255.147 625.4 254.117 628.14 252.247C626.91 249.447 623.26 244.267 620.14 244.247C615.28 244.227 611.99 248.457 609.06 251.277L601.9 258.177L590.53 270.807L572.06 290.727L572.08 290.707Z" fill="#BE352F"/>
<path d="M562.961 185C569.581 188.15 573.921 194.65 573.991 201.87C574.071 209.8 570.371 216.7 562.801 220.29C558.621 221.59 553.501 223.1 549.011 223.1H511.371L511.431 149.48L551.821 149.78C558.081 149.83 564.391 153.66 567.531 157.57C573.851 165.45 574.041 178.78 562.961 185ZM555.511 165.34C553.501 163.39 549.591 161.94 547.171 161.95L524.971 162.1L525.171 179.01L550.181 178.82C552.781 178.8 556.471 176.2 557.361 174.21C558.471 171.75 558.001 167.74 555.521 165.33L555.511 165.34ZM558.281 206.21C561.051 203.59 560.531 198.51 558.231 196.16C555.101 192.96 550.501 191.27 546.091 191.27L524.991 191.31L525.131 210.15L545.091 210.25C549.491 210.27 554.761 209.52 558.281 206.21Z" fill="black"/>
<path d="M827.35 225.478L827.17 172.698L801.86 205.498L777.01 172.168L776.91 225.358L763.22 225.328L763.17 152.378L779.07 151.988L802.26 183.658L825.34 152.148L841.16 152.098L841.17 225.078L827.35 225.478Z" fill="black"/>
<path d="M637.301 192.738L597.521 192.758L597.531 209.388L638.831 209.378L638.781 223.128L583.541 223.098L583.571 149.488L638.801 149.508L638.691 163.008L597.551 162.938L597.461 179.828L637.281 179.868L637.301 192.738Z" fill="black"/>
<path d="M943.659 225.158L934.799 225.228L896.289 175.868L896.109 225.378L882.309 225.338L882.279 152.018L893.509 151.828L929.409 196.978L929.809 151.888L943.619 151.898L943.659 225.158Z" fill="black"/>
<path d="M385.99 195.249L346.13 195.309L346.28 211.869H387.51L387.59 225.359L332.27 225.389L332.24 151.929L387.44 151.809L387.49 165.409L346.16 165.349V182.379L386.08 182.359L385.99 195.249Z" fill="black"/>
<path d="M1010.01 195.24L969.8 195.29L969.81 211.83L1011.51 211.91L1011.35 225.36L956.21 225.42L956.17 151.86L1011.36 151.82L1011.39 165.38L969.8 165.36V182.37L1009.8 182.35L1010.01 195.24Z" fill="black"/>
<path d="M171.78 211.648L133.2 211.568L126.64 225.478L111.82 225.348L144.75 151.958L159.94 151.918L192.83 225.218L177.98 225.538L171.78 211.648ZM166.14 198.718L152.35 167.418L138.61 198.678L166.14 198.718Z" fill="black"/>
<path d="M240.82 225.129C223.52 230.529 200.66 227.259 194.16 209.379L205.18 203.479C207.75 207.569 210.94 211.279 215.48 213.039C227.64 217.739 243.32 214.359 243.33 203.839C243.35 190.249 219.03 196.169 204.97 186.709C198.56 182.399 196.45 175.039 197.51 167.549C199.67 152.249 219.86 146.859 236.97 150.669C244.53 152.349 250.69 156.629 254.7 163.809L243.88 169.599C236.63 160.949 224.18 158.789 214.27 164.569C212.24 165.759 210.73 169.759 210.88 171.869C211.73 183.699 238.08 177.129 250.9 188.679C256.97 194.149 258.25 202.559 256.18 210.389C254.4 217.119 248.53 222.729 240.81 225.139L240.82 225.129Z" fill="black"/>
<path d="M1281.4 224.028C1264.58 231.148 1238.59 228.058 1231.82 209.308L1243.3 203.398C1248.59 214.928 1264.12 217.708 1275.05 213.018C1279.31 211.188 1281.43 207.278 1281.07 202.948C1280.79 199.548 1277.17 195.658 1272.95 194.858L1252.18 190.908C1242.66 189.098 1236.13 182.298 1235.15 173.898C1234.05 164.408 1238.84 156.478 1247.75 152.678C1262.83 146.248 1285.66 148.968 1292.5 164.088L1281.88 169.458C1274.57 161.338 1262.22 158.768 1252.28 164.348C1249.98 165.638 1248.44 169.498 1248.59 171.848C1248.73 173.978 1251.21 177.608 1253.65 178.108L1266.2 180.698C1279.1 183.358 1293.76 184.808 1294.83 202.338C1295.41 211.888 1290.79 220.058 1281.39 224.038L1281.4 224.028Z" fill="black"/>
<path d="M300.701 225.238L286.841 225.378L286.831 164.498L263.471 164.398L263.541 151.848L323.941 151.868L324.221 164.468L300.691 164.478L300.701 225.238Z" fill="black"/>
<path d="M1226.16 212.687L1226.33 225.397L1174.43 225.407L1174.44 152.067L1188.37 151.867L1188.39 212.657L1226.16 212.687Z" fill="black"/>
<path d="M868.23 151.801H854.33V225.451H868.23V151.801Z" fill="black"/>
<path d="M615.551 89.6976L623.761 92.9476C622.651 89.2676 621.741 87.9676 619.691 85.9176C610.381 76.6376 601.481 67.5176 590.701 60.0376C577.671 50.9876 565.441 43.7176 554.061 54.9376C541.951 66.8876 531.971 79.7676 521.291 92.9776L512.801 101.258C499.631 95.3976 478.561 81.5576 488.341 71.8676L541.901 18.7976C547.291 13.4576 553.041 7.68763 560.391 5.48763C570.111 2.57763 581.031 5.6276 589.131 11.7076C607.981 25.8576 625.221 41.0676 642.201 57.4076C645.941 61.0076 647.561 65.2776 653.041 67.8576L649.711 59.1976C650.981 56.1176 656.871 53.1376 660.981 55.0676C664.631 63.8576 665.631 73.5276 667.861 83.0576L676.481 119.938L658.391 115.248C642.751 111.198 627.501 108.798 612.721 101.778C612.291 97.5576 613.571 93.4776 615.541 89.7076L615.551 89.6976Z" fill="#78B933"/>
<path d="M540.63 286.127C539.96 290.717 535.23 293.417 530.9 292.557L489.01 284.257L456.57 276.797C448.53 274.947 439.97 273.337 433.67 267.487C426.51 260.837 424.06 250.217 424.75 240.157C426.35 216.697 429.58 193.837 434.28 170.927C435.28 166.037 437.43 162.217 436.69 157.247L430.84 165.857L422.65 160.817C421.43 160.067 422.15 155.737 423.18 154.697L434.17 143.607C445.7 131.967 457.24 120.747 467.71 108.367L478.27 138.347L484.96 158.847C486.04 162.687 488.17 168.317 486.72 171.987C485.06 176.187 478.64 176.357 475.39 175.467L474.2 168.357L471.65 171.077C467.42 185.707 465.17 200.017 464.23 215.297C464.5 223.617 464.44 231.747 468.32 239.297C469.85 242.277 475.15 245.657 478.57 246.387C493.95 249.697 508.66 251.437 524.22 252.637C530.08 253.087 535.54 253.997 541.51 255.837C543.01 261.057 543.45 266.847 542.66 272.247L540.64 286.127H540.63Z" fill="#0CB4C4"/>
<path d="M572.08 290.709L590.55 270.789L601.92 258.159L609.08 251.259C612.01 248.439 615.29 244.209 620.16 244.229C623.28 244.249 626.93 249.429 628.16 252.229C625.42 254.099 623.43 255.129 621.98 257.859C636.31 256.009 648.37 251.509 661.03 246.229C669.78 242.579 677.99 237.819 684.81 231.249C689.04 227.179 689.83 220.329 688.26 214.639C684.04 199.349 677.9 185.219 671.64 170.629L667.13 155.319C676.16 149.009 694.85 139.489 700.25 143.149C704.71 146.179 706.03 151.999 707.5 157.019L725.54 218.789C727.92 226.919 730.57 235.569 728.79 244.269C727.01 252.969 719.22 261.069 710.62 265.099C689.02 275.239 666.87 283.049 644.07 290.349C638.96 291.989 634.91 291.389 629.2 294.939L639.42 296.139C640.69 298.669 641.48 305.539 637.18 307.669C634.74 308.259 629.82 307.149 626.92 306.229C608.54 300.379 590.34 295.039 572.1 290.689L572.08 290.709Z" fill="#F59E2E"/>
<path d="M759.776 268.975V262.636H789.641V268.975H778.508V299H770.908V268.975H759.776ZM794.559 299V262.636H808.906C811.652 262.636 813.996 263.128 815.937 264.11C817.89 265.081 819.375 266.46 820.393 268.247C821.423 270.023 821.938 272.112 821.938 274.515C821.938 276.93 821.417 279.007 820.376 280.747C819.334 282.475 817.825 283.801 815.848 284.724C813.883 285.648 811.504 286.109 808.71 286.109H799.104V279.93H807.467C808.935 279.93 810.154 279.729 811.125 279.327C812.096 278.924 812.818 278.321 813.291 277.516C813.777 276.711 814.019 275.71 814.019 274.515C814.019 273.308 813.777 272.29 813.291 271.461C812.818 270.632 812.09 270.005 811.107 269.579C810.137 269.141 808.911 268.922 807.432 268.922H802.247V299H794.559ZM814.197 282.452L823.234 299H814.747L805.905 282.452H814.197ZM833.639 299H825.401L837.954 262.636H847.862L860.397 299H852.158L843.05 270.946H842.766L833.639 299ZM833.124 284.707H852.585V290.708H833.124V284.707ZM883.67 273.094C883.528 271.662 882.919 270.549 881.841 269.756C880.764 268.963 879.302 268.567 877.456 268.567C876.201 268.567 875.142 268.744 874.278 269.099C873.413 269.443 872.751 269.922 872.289 270.538C871.839 271.153 871.614 271.852 871.614 272.633C871.59 273.284 871.727 273.852 872.023 274.337C872.33 274.823 872.751 275.243 873.283 275.598C873.816 275.941 874.431 276.243 875.13 276.504C875.828 276.752 876.574 276.965 877.367 277.143L880.634 277.924C882.22 278.279 883.676 278.753 885.002 279.344C886.328 279.936 887.476 280.664 888.447 281.528C889.417 282.393 890.169 283.411 890.702 284.582C891.246 285.754 891.524 287.098 891.536 288.613C891.524 290.838 890.956 292.768 889.831 294.401C888.719 296.023 887.109 297.284 885.002 298.183C882.907 299.071 880.38 299.515 877.42 299.515C874.485 299.515 871.928 299.065 869.75 298.165C867.584 297.266 865.891 295.934 864.672 294.17C863.464 292.395 862.831 290.199 862.772 287.583H870.211C870.294 288.802 870.644 289.82 871.259 290.637C871.886 291.442 872.721 292.052 873.763 292.466C874.816 292.868 876.006 293.07 877.331 293.07C878.634 293.07 879.764 292.88 880.723 292.501C881.693 292.123 882.445 291.596 882.978 290.921C883.51 290.246 883.777 289.471 883.777 288.595C883.777 287.778 883.534 287.092 883.049 286.536C882.575 285.979 881.877 285.506 880.954 285.115C880.042 284.724 878.924 284.369 877.598 284.05L873.638 283.055C870.573 282.31 868.152 281.144 866.376 279.558C864.601 277.971 863.719 275.835 863.731 273.148C863.719 270.946 864.305 269.022 865.488 267.377C866.684 265.732 868.323 264.447 870.407 263.524C872.49 262.601 874.858 262.139 877.509 262.139C880.208 262.139 882.564 262.601 884.576 263.524C886.6 264.447 888.174 265.732 889.299 267.377C890.423 269.022 891.003 270.928 891.039 273.094H883.67ZM896.707 299V262.636H904.396V277.64H920.003V262.636H927.673V299H920.003V283.979H904.396V299H896.707ZM944.199 268.975V262.636H974.064V268.975H962.932V299H955.332V268.975H944.199ZM1010.74 280.818C1010.74 284.784 1009.99 288.157 1008.48 290.939C1006.99 293.721 1004.96 295.845 1002.38 297.313C999.807 298.769 996.919 299.497 993.711 299.497C990.48 299.497 987.579 298.763 985.011 297.295C982.442 295.828 980.412 293.703 978.921 290.921C977.429 288.139 976.683 284.772 976.683 280.818C976.683 276.853 977.429 273.479 978.921 270.697C980.412 267.916 982.442 265.797 985.011 264.341C987.579 262.873 990.48 262.139 993.711 262.139C996.919 262.139 999.807 262.873 1002.38 264.341C1004.96 265.797 1006.99 267.916 1008.48 270.697C1009.99 273.479 1010.74 276.853 1010.74 280.818ZM1002.94 280.818C1002.94 278.25 1002.56 276.083 1001.79 274.32C1001.03 272.556 999.961 271.218 998.576 270.307C997.191 269.395 995.57 268.94 993.711 268.94C991.853 268.94 990.231 269.395 988.846 270.307C987.461 271.218 986.384 272.556 985.615 274.32C984.857 276.083 984.478 278.25 984.478 280.818C984.478 283.387 984.857 285.553 985.615 287.317C986.384 289.08 987.461 290.418 988.846 291.33C990.231 292.241 991.853 292.697 993.711 292.697C995.57 292.697 997.191 292.241 998.576 291.33C999.961 290.418 1001.03 289.08 1001.79 287.317C1002.56 285.553 1002.94 283.387 1002.94 280.818ZM1026.62 268.975V262.636H1056.49V268.975H1045.35V299H1037.75V268.975H1026.62ZM1061.4 299V262.636H1075.75C1078.5 262.636 1080.84 263.128 1082.78 264.11C1084.74 265.081 1086.22 266.46 1087.24 268.247C1088.27 270.023 1088.78 272.112 1088.78 274.515C1088.78 276.93 1088.26 279.007 1087.22 280.747C1086.18 282.475 1084.67 283.801 1082.69 284.724C1080.73 285.648 1078.35 286.109 1075.56 286.109H1065.95V279.93H1074.31C1075.78 279.93 1077 279.729 1077.97 279.327C1078.94 278.924 1079.66 278.321 1080.14 277.516C1080.62 276.711 1080.86 275.71 1080.86 274.515C1080.86 273.308 1080.62 272.29 1080.14 271.461C1079.66 270.632 1078.94 270.005 1077.95 269.579C1076.98 269.141 1075.76 268.922 1074.28 268.922H1069.09V299H1061.4ZM1081.04 282.452L1090.08 299H1081.59L1072.75 282.452H1081.04ZM1094.22 299V262.636H1118.72V268.975H1101.91V277.64H1117.46V283.979H1101.91V292.661H1118.79V299H1094.22ZM1131.1 299H1122.86L1135.41 262.636H1145.32L1157.86 299H1149.62L1140.51 270.946H1140.23L1131.1 299ZM1130.59 284.707H1150.05V290.708H1130.59V284.707ZM1181.13 273.094C1180.99 271.662 1180.38 270.549 1179.3 269.756C1178.23 268.963 1176.76 268.567 1174.92 268.567C1173.66 268.567 1172.6 268.744 1171.74 269.099C1170.87 269.443 1170.21 269.922 1169.75 270.538C1169.3 271.153 1169.08 271.852 1169.08 272.633C1169.05 273.284 1169.19 273.852 1169.48 274.337C1169.79 274.823 1170.21 275.243 1170.74 275.598C1171.28 275.941 1171.89 276.243 1172.59 276.504C1173.29 276.752 1174.03 276.965 1174.83 277.143L1178.09 277.924C1179.68 278.279 1181.14 278.753 1182.46 279.344C1183.79 279.936 1184.94 280.664 1185.91 281.528C1186.88 282.393 1187.63 283.411 1188.16 284.582C1188.71 285.754 1188.99 287.098 1189 288.613C1188.99 290.838 1188.42 292.768 1187.29 294.401C1186.18 296.023 1184.57 297.284 1182.46 298.183C1180.37 299.071 1177.84 299.515 1174.88 299.515C1171.95 299.515 1169.39 299.065 1167.21 298.165C1165.04 297.266 1163.35 295.934 1162.13 294.17C1160.93 292.395 1160.29 290.199 1160.23 287.583H1167.67C1167.76 288.802 1168.1 289.82 1168.72 290.637C1169.35 291.442 1170.18 292.052 1171.22 292.466C1172.28 292.868 1173.47 293.07 1174.79 293.07C1176.09 293.07 1177.22 292.88 1178.18 292.501C1179.15 292.123 1179.91 291.596 1180.44 290.921C1180.97 290.246 1181.24 289.471 1181.24 288.595C1181.24 287.778 1181 287.092 1180.51 286.536C1180.04 285.979 1179.34 285.506 1178.41 285.115C1177.5 284.724 1176.38 284.369 1175.06 284.05L1171.1 283.055C1168.03 282.31 1165.61 281.144 1163.84 279.558C1162.06 277.971 1161.18 275.835 1161.19 273.148C1161.18 270.946 1161.77 269.022 1162.95 267.377C1164.14 265.732 1165.78 264.447 1167.87 263.524C1169.95 262.601 1172.32 262.139 1174.97 262.139C1177.67 262.139 1180.02 262.601 1182.04 263.524C1184.06 264.447 1185.64 265.732 1186.76 267.377C1187.88 269.022 1188.46 270.928 1188.5 273.094H1181.13ZM1216.63 262.636H1224.32V286.251C1224.32 288.903 1223.68 291.223 1222.42 293.212C1221.16 295.2 1219.41 296.751 1217.14 297.864C1214.88 298.964 1212.25 299.515 1209.24 299.515C1206.22 299.515 1203.58 298.964 1201.32 297.864C1199.06 296.751 1197.31 295.2 1196.05 293.212C1194.8 291.223 1194.17 288.903 1194.17 286.251V262.636H1201.86V285.594C1201.86 286.979 1202.16 288.21 1202.76 289.288C1203.38 290.365 1204.24 291.211 1205.35 291.827C1206.47 292.442 1207.76 292.75 1209.24 292.75C1210.73 292.75 1212.03 292.442 1213.13 291.827C1214.24 291.211 1215.1 290.365 1215.71 289.288C1216.32 288.21 1216.63 286.979 1216.63 285.594V262.636ZM1230.64 299V262.636H1244.99C1247.74 262.636 1250.08 263.128 1252.02 264.11C1253.97 265.081 1255.46 266.46 1256.48 268.247C1257.51 270.023 1258.02 272.112 1258.02 274.515C1258.02 276.93 1257.5 279.007 1256.46 280.747C1255.42 282.475 1253.91 283.801 1251.93 284.724C1249.97 285.648 1247.59 286.109 1244.79 286.109H1235.19V279.93H1243.55C1245.02 279.93 1246.24 279.729 1247.21 279.327C1248.18 278.924 1248.9 278.321 1249.38 277.516C1249.86 276.711 1250.1 275.71 1250.1 274.515C1250.1 273.308 1249.86 272.29 1249.38 271.461C1248.9 270.632 1248.17 270.005 1247.19 269.579C1246.22 269.141 1245 268.922 1243.52 268.922H1238.33V299H1230.64ZM1250.28 282.452L1259.32 299H1250.83L1241.99 282.452H1250.28ZM1263.46 299V262.636H1287.96V268.975H1271.14V277.64H1286.7V283.979H1271.14V292.661H1288.03V299H1263.46Z" fill="#76B730"/>
</svg>
